<?xml version="1.0" encoding="utf-8"?>
<!-- Generator: Adobe Illustrator 16.0.0, SVG Export Plug-In . SVG Version: 6.00 Build 0)  -->
<!DOCTYPE svg PUBLIC "-//W3C//DTD SVG 1.1//EN" "http://www.w3.org/Graphics/SVG/1.1/DTD/svg11.dtd">
<svg version="1.1" id="Layer_1" xmlns="http://www.w3.org/2000/svg" xmlns:xlink="http://www.w3.org/1999/xlink" x="0px" y="0px"
	 width="77px" height="60px" viewBox="0 0 77 60" enable-background="new 0 0 77 60" xml:space="preserve">
<g>
	<path fill="#FFFFFF" d="M27.882,60.223H-0.085V40.334c0-8.045,0.711-14.393,2.138-19.039c1.428-4.659,4.064-8.826,7.914-12.517
		c3.848-3.698,8.759-6.598,14.73-8.707l5.475,11.476c-5.575,1.842-9.572,4.421-11.996,7.711c-2.422,3.301-3.699,7.688-3.83,13.161
		h13.536V60.223z M74.562,60.223H46.594V40.334c0-8.112,0.711-14.472,2.143-19.097c1.423-4.613,4.077-8.768,7.96-12.459
		c3.879-3.698,8.773-6.598,14.68-8.707l5.476,11.476c-5.574,1.842-9.573,4.421-11.992,7.711c-2.427,3.301-3.703,7.688-3.834,13.161
		h13.536V60.223z"/>
</g>
</svg>
