<?xml version="1.0" encoding="utf-8"?>
<!-- Generator: Adobe Illustrator 16.0.0, SVG Export Plug-In . SVG Version: 6.00 Build 0)  -->
<!DOCTYPE svg PUBLIC "-//W3C//DTD SVG 1.1//EN" "http://www.w3.org/Graphics/SVG/1.1/DTD/svg11.dtd">
<svg version="1.1" id="Layer_1" xmlns="http://www.w3.org/2000/svg" xmlns:xlink="http://www.w3.org/1999/xlink" x="0px" y="0px"
	 width="54.9px" height="68.49px" viewBox="0 0 54.9 68.49" enable-background="new 0 0 54.9 68.49" xml:space="preserve">
<g>
	<path fill="#44C8F5" d="M52.734,29.945l-0.402-0.094l0.283-0.3c1.049-1.129,0.988-2.907-0.139-3.963l-0.92-0.856
		c-0.549-0.511-1.26-0.785-2.006-0.751c-0.75,0.025-1.445,0.339-1.957,0.886l-2.789,2.99c-1.682-2.394-3.912-4.578-6.963-6.443
		c1.098-0.195,1.99-0.431,2.752-0.867h6.301c2.521,0,4.576-2.054,4.576-4.576c0-2.523-2.055-4.576-4.576-4.576h-6.861
		c-0.824-0.392-1.813-0.589-3.16-0.604c-0.238-0.002-0.453-0.16-0.529-0.395c-0.184-0.54-0.398-1.067-0.633-1.575l1.051-1.054
		c1.785-1.784,1.785-4.687,0-6.469c-1.727-1.729-4.742-1.731-6.469,0l-1.236,1.234c-2.3-0.679-4.722-0.314-6.896,1.047
		c-0.181,0.117-0.454,0.045-0.603-0.154c-0.552-0.736-1.217-1.558-2.147-2.031c-1.347-0.684-3.351-0.043-4.344,0.63
		c-0.905,0.619-0.927,1.955-0.672,3.771c0.087,0.664,0.308,1.341,0.515,1.999c0.131,0.41,0.321,1.014,0.401,1.417l0.007,0.259
		c0,0.075-0.003,0.117,0,0.127c-0.026,0.035-0.067,0.07-0.101,0.105c-0.033,0.038-0.066,0.077-0.113,0.113
		c-0.04,0.035-0.101,0.067-0.15,0.102c-0.058,0.038-0.104,0.074-0.171,0.109c-0.061,0.033-0.127,0.063-0.194,0.094
		c-0.066,0.033-0.134,0.066-0.207,0.099c-0.079,0.031-0.159,0.058-0.247,0.088c-0.07,0.025-0.141,0.054-0.214,0.077
		c-0.101,0.03-0.204,0.055-0.305,0.08c-0.069,0.019-0.134,0.039-0.204,0.054c-0.117,0.026-0.238,0.044-0.358,0.065
		c-0.056,0.008-0.11,0.021-0.166,0.03c-0.135,0.017-0.271,0.028-0.409,0.037c-0.036,0.003-0.076,0.01-0.113,0.01
		c-0.174,0.008-0.345,0.007-0.508-0.003c-0.261-0.017-0.512-0.026-0.76-0.023l-5.42-5.425c-1.061-1.059-2.914-1.057-3.967,0
		L0.82,6.096c-1.094,1.094-1.094,2.873,0,3.966l5.522,5.52c-0.008,0.119-0.014,0.238-0.014,0.361
		c-0.087,3.579-0.171,7.279-1.365,10.411c-0.217,0.575-0.421,1.166-0.618,1.774c-0.168,0.507-0.314,1.008-0.459,1.512
		c-0.012,0.056-0.033,0.108-0.046,0.165L3.74,30.162c-0.043,0.162-0.097,0.328-0.137,0.49l-0.291,1.033l0.066-0.013
		c-2.05,9.312,0.258,17.634,6.93,24.792c7.528,8.076,17.351,12.029,29.932,12.029c1.451,0,2.943-0.051,4.467-0.154
		c4.152-0.287,6.676-2.957,6.75-7.137c0.061-3.029-0.145-6.309-0.598-9.742c-0.182-1.367-0.336-2.752-0.49-4.133
		c-0.424-3.803-0.861-7.656-1.861-11.318l2.668,0.623c0.215,0.049,0.428,0.072,0.643,0.072c0.514,0,1.023-0.143,1.475-0.424
		c0.635-0.396,1.08-1.018,1.248-1.747l0.287-1.221C55.18,31.808,54.238,30.296,52.734,29.945z M46.895,13.684
		c1.266,0,2.289,1.026,2.289,2.287c0,1.263-1.023,2.288-2.289,2.288c-1.26,0-2.287-1.025-2.287-2.288
		C44.607,14.71,45.635,13.684,46.895,13.684z M38.889,13.684h4.068c-0.396,0.675-0.637,1.451-0.637,2.287
		c0,0.838,0.24,1.612,0.637,2.288h-4.068c-1.262,0-2.287-1.025-2.287-2.288C36.602,14.71,37.627,13.684,38.889,13.684z M2.439,8.444
		C2.375,8.382,2.342,8.317,2.322,8.255C2.301,8.198,2.288,8.14,2.288,8.08V8.078c0-0.059,0.014-0.119,0.034-0.176
		c0.021-0.06,0.054-0.125,0.117-0.187l0.89-0.888c0.13-0.13,0.284-0.152,0.364-0.152c0.077,0,0.234,0.022,0.361,0.152l6.144,6.142
		l0.515-0.033c0.305-0.022,0.636-0.022,1,0.004c0.194,0.01,0.401,0.014,0.623,0.007c0.134-0.005,0.273-0.019,0.414-0.03
		c0.094-0.008,0.185-0.013,0.281-0.023c0.147-0.018,0.291-0.043,0.434-0.068c0.107-0.017,0.209-0.032,0.315-0.054
		c0.138-0.026,0.273-0.063,0.411-0.099c0.117-0.03,0.234-0.058,0.351-0.095c0.127-0.039,0.252-0.083,0.374-0.127
		c0.129-0.044,0.249-0.09,0.373-0.142c0.113-0.048,0.223-0.101,0.338-0.154c0.119-0.062,0.24-0.127,0.36-0.196
		c0.098-0.059,0.194-0.119,0.288-0.182c0.113-0.079,0.221-0.162,0.321-0.248c0.086-0.07,0.166-0.139,0.24-0.214
		c0.034-0.036,0.076-0.063,0.11-0.099c1.92,1.56,3.541,3.813,2.558,6.668c-1.113,3.236-7.035,8.355-12.827,10.496
		c0.139-0.402,0.27-0.804,0.427-1.213c1.332-3.5,1.425-7.575,1.509-11.172c0.006-0.268,0.029-0.503,0.05-0.743l0.051-0.535
		L2.439,8.444z M48.594,51.758c0.441,3.326,0.637,6.486,0.582,9.398c-0.057,2.957-1.699,4.695-4.621,4.896
		c-14.027,0.971-24.675-2.68-32.575-11.15c-6.468-6.943-8.487-14.779-6.12-23.86c6.549-1.854,14.234-7.833,15.809-12.413
		c1.237-3.595-0.23-7.065-4.123-9.823c-0.094-0.558-0.273-1.137-0.455-1.709c-0.181-0.564-0.367-1.148-0.431-1.616
		c-0.138-1.005-0.128-1.478-0.104-1.689c0.656-0.356,1.563-0.488,1.819-0.357c0.492,0.249,0.956,0.833,1.352,1.364
		c0.862,1.144,2.465,1.464,3.651,0.718c1.792-1.122,3.72-1.334,5.566-0.607l0.701,0.274l2.266-2.267
		c0.893-0.893,2.344-0.891,3.232,0c0.893,0.891,0.893,2.343,0,3.234l-2.23,2.232l0.398,0.748c0.334,0.632,0.629,1.309,0.869,2.007
		c0.248,0.73,0.775,1.311,1.432,1.643c-0.098,0.102-0.178,0.221-0.268,0.332c-0.086,0.107-0.18,0.209-0.262,0.325
		c-0.088,0.135-0.16,0.286-0.232,0.431c-0.061,0.115-0.131,0.221-0.182,0.339c-0.074,0.176-0.119,0.363-0.17,0.547
		c-0.031,0.104-0.07,0.2-0.092,0.305c-0.059,0.296-0.092,0.6-0.092,0.913c0,0.34,0.039,0.669,0.113,0.989
		c0.02,0.104,0.061,0.2,0.094,0.301c0.061,0.21,0.127,0.418,0.221,0.614c0.049,0.11,0.113,0.212,0.17,0.318
		c0.098,0.174,0.201,0.341,0.318,0.498c0.072,0.102,0.154,0.195,0.24,0.291c0.127,0.144,0.262,0.279,0.402,0.407
		c0.053,0.047,0.096,0.105,0.154,0.15c-0.488,0.29-0.838,0.776-0.945,1.363c-0.152,0.854,0.236,1.688,0.99,2.122
		c3.07,1.771,5.289,3.871,6.92,6.212l0.297,0.459c0.035,0.05,0.061,0.099,0.094,0.146c0.961,1.495,1.736,3.122,2.369,4.975
		l0.207,0.6h0.006c1.201,3.789,1.66,7.928,2.135,12.164C48.254,48.977,48.408,50.375,48.594,51.758z M52.316,34.015
		c-0.045,0.182-0.164,0.279-0.23,0.32c-0.066,0.045-0.207,0.105-0.389,0.065l-3.992-0.929c0-0.006-0.004-0.011-0.006-0.016
		c-0.449-1.234-0.98-2.439-1.627-3.604l3.197-3.423c0.127-0.137,0.281-0.162,0.357-0.165c0.08,0.006,0.238,0.012,0.371,0.141
		l0.916,0.854c0.209,0.193,0.223,0.521,0.027,0.73l-2.982,3.193l4.254,0.989c0.277,0.067,0.451,0.345,0.389,0.622L52.316,34.015z"/>
	<path fill="#44C8F5" d="M42.828,50.475l-2.863,1.912c-1.941-1.025-3.691-2.109-5.242-3.246h4.166c0.633,0,1.145-0.512,1.145-1.145
		s-0.512-1.143-1.145-1.143h-6.861c-0.027,0-0.047,0.014-0.074,0.016c-2.971-2.77-4.889-5.813-5.735-9.109
		c-0.433-1.695-0.536-3.321-0.445-4.82c0.013-0.009,0.033-0.01,0.047-0.019c2.006-1.404,4.354-1.4,6.977,0.005
		c0.922,0.497,1.865,1.166,2.787,1.968c-0.078,0.161-0.127,0.336-0.127,0.52v4.572c0,0.635,0.512,1.145,1.145,1.145
		s1.143-0.51,1.143-1.145v-2.926c0.664,0.752,1.305,1.563,1.916,2.438c0.223,0.318,0.58,0.488,0.941,0.488
		c0.223,0,0.451-0.066,0.652-0.203c0.518-0.361,0.645-1.074,0.285-1.596c-0.797-1.141-1.654-2.193-2.537-3.148l2.861-2.143
		c0.504-0.379,0.607-1.098,0.23-1.6c-0.383-0.507-1.098-0.609-1.604-0.229l-3.133,2.349c-1.145-1.026-2.322-1.884-3.484-2.509
		c-2.73-1.462-5.355-1.697-7.704-0.747c0.747-3.306,2.204-5.504,2.225-5.542c0.355-0.522,0.221-1.232-0.301-1.588
		c-0.518-0.358-1.231-0.225-1.586,0.297c-0.184,0.268-4.371,6.531-2.627,14.418c-0.178,0.047-0.349,0.117-0.496,0.248
		c-5.06,4.541-5.244,12.654-0.491,18.279l-0.017,3.15c-0.007,0.635,0.504,1.146,1.137,1.15c0,0,0.003,0,0.007,0
		c0.628,0,1.138-0.508,1.144-1.137l0.014-2.295h2.273c0.633,0,1.145-0.508,1.145-1.143c0-0.633-0.512-1.145-1.145-1.145h-2.745
		c-3.894-4.541-3.939-11.002-0.157-14.795c1.184,3.23,3.297,6.213,6.334,8.922v5.873c0,0.635,0.508,1.145,1.145,1.145
		c0.631,0,1.143-0.51,1.143-1.145V50.84c1.689,1.254,3.596,2.443,5.719,3.568v2.734c0,0.637,0.508,1.145,1.145,1.145
		c0.633,0,1.143-0.508,1.143-1.145v-2.816l2.924-1.949c0.525-0.35,0.668-1.059,0.314-1.584
		C44.066,50.268,43.357,50.127,42.828,50.475z"/>
</g>
</svg>
