<?xml version="1.0" encoding="utf-8"?>
<!-- Generator: Adobe Illustrator 16.0.0, SVG Export Plug-In . SVG Version: 6.00 Build 0)  -->
<!DOCTYPE svg PUBLIC "-//W3C//DTD SVG 1.1//EN" "http://www.w3.org/Graphics/SVG/1.1/DTD/svg11.dtd">
<svg version="1.1" id="Layer_1" xmlns="http://www.w3.org/2000/svg" xmlns:xlink="http://www.w3.org/1999/xlink" x="0px" y="0px"
	 width="68.03px" height="68.49px" viewBox="0 0 68.03 68.49" enable-background="new 0 0 68.03 68.49" xml:space="preserve">
<g>
	<path fill="#44C8F5" d="M14.691,55.323c-0.344-0.324-0.695-0.655-1.044-0.986c5.198-5.1,10.492-11.364,10.492-19.862
		s-5.294-14.762-10.492-19.862c0.349-0.334,0.7-0.662,1.044-0.989c4.481-4.233,8.352-7.886,8.352-12.066V0.46h-2.194v1.097
		c0,0.722-0.188,1.451-0.512,2.193H3.803C3.479,3.008,3.291,2.278,3.291,1.557V0.46H1.097v1.097c0,4.181,3.869,7.833,8.352,12.066
		c0.344,0.327,0.695,0.659,1.044,0.989C5.294,19.713,0,25.977,0,34.475s5.294,14.763,10.492,19.862
		c-0.349,0.331-0.7,0.662-1.044,0.99c-4.482,4.23-8.352,7.886-8.352,12.066v1.097h2.194v-1.097c0-0.723,0.188-1.455,0.512-2.194
		H20.34c0.321,0.739,0.509,1.472,0.509,2.194v1.097h2.194v-1.097C23.043,63.213,19.173,59.558,14.691,55.323z M5.113,5.944h13.913
		c-0.535,0.716-1.171,1.448-1.873,2.194H6.986C6.283,7.393,5.648,6.66,5.113,5.944z M9.174,10.332h5.792
		c-0.576,0.556-1.171,1.12-1.779,1.698c-0.368,0.349-0.742,0.697-1.117,1.055c-0.374-0.357-0.749-0.706-1.117-1.055
		C10.344,11.452,9.748,10.888,9.174,10.332z M12.069,16.138c1.328,1.297,2.643,2.646,3.853,4.074H8.217
		C9.428,18.783,10.742,17.435,12.069,16.138z M3.896,26.793h10.367v-2.194h-9.21c0.469-0.795,0.98-1.564,1.532-2.317v0.124h10.97
		v-0.124c0.552,0.75,1.063,1.522,1.531,2.317h-2.629v2.194h3.786c0.324,0.709,0.595,1.444,0.833,2.194H3.066
		C3.301,28.237,3.571,27.502,3.896,26.793z M2.498,31.181h19.144c0.133,0.712,0.207,1.448,0.254,2.197H2.244
		C2.291,32.629,2.365,31.893,2.498,31.181z M3.063,39.963h3.521v-2.196H2.498c-0.133-0.713-0.207-1.445-0.254-2.195h19.651
		c-0.047,0.75-0.121,1.482-0.254,2.195H8.778v2.196h12.294c-0.234,0.749-0.505,1.485-0.829,2.194H3.896
		C3.571,41.448,3.301,40.712,3.063,39.963z M6.585,46.669c-0.552-0.753-1.063-1.522-1.532-2.318h14.033
		c-0.469,0.796-0.979,1.565-1.531,2.318v-0.124H6.585V46.669z M8.217,48.738h7.705c-1.21,1.425-2.524,2.775-3.853,4.074
		C10.742,51.514,9.428,50.163,8.217,48.738z M10.952,56.919c0.368-0.348,0.743-0.699,1.117-1.057
		c0.375,0.36,0.749,0.712,1.117,1.057c0.608,0.578,1.203,1.14,1.779,1.695H9.174C9.748,58.059,10.344,57.497,10.952,56.919z
		 M5.113,63.006c0.535-0.72,1.17-1.448,1.873-2.194h10.167c0.702,0.746,1.338,1.475,1.873,2.194H5.113z"/>
	<path fill="#44C8F5" d="M62.543,59.712h-1.767c2.585-4.687,3.964-9.977,3.964-15.361c0-8.859-3.709-17.311-10.19-23.323
		l2.977-2.979l-2.194-2.198l3.933-3.933l1.104,1.102l4.823-4.863l-8.133-8.157l-4.824,4.894l1.088,1.086l-3.937,3.926l-2.188-2.187
		L31.835,23.081l-2.194-2.193l-4.843,4.842l14.719,14.719l4.843-4.844l-2.193-2.196l6.156-6.153
		c3.164,2.855,5.498,6.561,6.695,10.621c-1.967,0.435-3.445,2.185-3.445,4.281c0,2.381,1.914,4.321,4.281,4.374
		c-0.086,0.92-0.228,1.833-0.424,2.729c-0.86-0.33-1.789-0.521-2.761-0.521h-16.46c-3.023,0-5.484,2.462-5.484,5.484v1.101h14.35
		c-0.05,0.358-0.086,0.726-0.086,1.097v3.292H29.627c-3.027,0-5.487,2.461-5.487,5.487v3.291H68.03v-3.291
		C68.03,62.173,65.568,59.712,62.543,59.712z M57.064,3.114l5.029,5.044l-1.732,1.753l-5.036-5.03L57.064,3.114z M54.877,7.529
		l2.836,2.836l-3.933,3.934l-2.843-2.843L54.877,7.529z M39.517,37.344L27.901,25.729l1.739-1.742l11.615,11.614L39.517,37.344z
		 M40.613,31.856l-7.228-7.224L47.198,10.82l7.224,7.228L40.613,31.856z M49.874,25.702l3.124-3.122
		c6.069,5.604,9.545,13.497,9.545,21.771c0,3.89-0.764,7.732-2.234,11.294c-0.214-2.123-1.301-3.997-2.893-5.25
		c0.357-1.448,0.585-2.934,0.679-4.429c1.338-0.753,2.254-2.171,2.254-3.809c0-1.939-1.271-3.572-3.021-4.151
		C56.102,33.302,53.489,28.993,49.874,25.702z M53.768,42.157c0-1.211,0.982-2.194,2.193-2.194s2.194,0.983,2.194,2.194
		s-0.983,2.193-2.194,2.193S53.768,43.368,53.768,42.157z M33.105,53.126c0.455-1.277,1.672-2.193,3.104-2.193h11.097
		c-0.649,0.629-1.174,1.374-1.565,2.193H33.105z M65.837,66.296H26.336v-1.097c0-1.816,1.476-3.29,3.291-3.29h19.752v-2.197h-2.197
		V56.42c0-3.026,2.462-5.487,5.487-5.487c3.024,0,5.486,2.461,5.486,5.487v3.292h-6.583v2.197h10.971
		c1.818,0,3.294,1.474,3.294,3.29V66.296z"/>
</g>
</svg>
