<?xml version="1.0" encoding="utf-8"?>
<!-- Generator: Adobe Illustrator 22.0.1, SVG Export Plug-In . SVG Version: 6.00 Build 0)  -->
<svg version="1.1" id="Layer_1" xmlns="http://www.w3.org/2000/svg" xmlns:xlink="http://www.w3.org/1999/xlink" x="0px" y="0px"
	 viewBox="0 0 93.9 93.9" style="enable-background:new 0 0 93.9 93.9;" xml:space="preserve">
<style type="text/css">
	.st0{fill:#ABE0F9;}
	.st1{fill:#FFFFFF;}
</style>
<g>
	<polyline class="st0" points="-0.1,94.2 -0.1,0.3 93.9,0.3 	"/>
	<g>
		<g>
			<path class="st1" d="M27.6,28.4c0-0.6-0.5-1-1-1c-0.6,0-1,0.5-1,1c0,0.6,0.5,1,1,1C27.1,29.4,27.6,28.9,27.6,28.4z"/>
			<path class="st1" d="M25.2,34.1c-0.7,0-1.3,0.6-1.3,1.3c0,0.7,0.6,1.3,1.3,1.3c0.7,0,1.3-0.6,1.3-1.3
				C26.5,34.7,25.9,34.1,25.2,34.1z"/>
			<path class="st1" d="M24.4,39.1c-0.4,0-0.8,0.4-0.8,0.8c0,0.4,0.4,0.8,0.8,0.8c0.4,0,0.8-0.4,0.8-0.8
				C25.2,39.5,24.8,39.1,24.4,39.1z"/>
			<path class="st1" d="M28.2,31.7c0-0.4-0.4-0.8-0.8-0.8c-0.4,0-0.8,0.4-0.8,0.8c0,0.4,0.4,0.8,0.8,0.8S28.2,32.2,28.2,31.7z"/>
			<path class="st1" d="M37,31.9c-2.6,0-4.8-2.1-4.8-4.8c0-0.4-0.3-0.7-0.7-0.7c-0.4,0-0.7,0.3-0.7,0.7c0,3.4,2.8,6.3,6.3,6.3
				c0.4,0,0.7-0.3,0.7-0.7C37.8,32.2,37.4,31.9,37,31.9z"/>
			<path class="st1" d="M46.2,27.1c0-4.8-8.2-17.1-8.6-17.6c-0.3-0.4-0.9-0.4-1.2,0c-0.2,0.3-2.6,3.9-4.9,8c-0.3-0.1-0.7-0.2-1-0.2
				h-7.2c-1.6,0-3,1.3-3,3c0,1.3,0.8,2.4,2,2.8v7l-0.5,1v-5.7c0-0.4-0.3-0.7-0.7-0.7h-6.6c-0.4,0-0.7,0.3-0.7,0.7v15.6
				c0,2,1.5,3.6,3.5,3.8c0.1,0,0.2,0.1,0.3,0.1h17.7c1.3,0,2.2-0.5,2.7-1.3c0.5-0.8,0.4-1.9-0.2-3l-2.5-4.4c0.6,0.1,1.3,0.2,2,0.2
				C42.1,36.3,46.2,32.2,46.2,27.1z M20.3,40.9c0,1.3-1.2,2.4-2.6,2.4c-1.4,0-2.6-1.1-2.6-2.4v-1.6h2.2c0.4,0,0.7-0.3,0.7-0.7
				c0-0.4-0.3-0.7-0.7-0.7h-2.2v-2.4h2.2c0.4,0,0.7-0.3,0.7-0.7c0-0.4-0.3-0.7-0.7-0.7h-2.2v-2.4h2.2c0.4,0,0.7-0.3,0.7-0.7
				c0-0.4-0.3-0.7-0.7-0.7h-2.2V26h5.1V40.9z M36.3,41.2c0.3,0.6,0.4,1.2,0.2,1.5c-0.2,0.4-0.7,0.6-1.4,0.6H20.9
				c0.6-0.7,0.9-1.5,0.9-2.4v-7c0.1-0.1,0.1-0.1,0.2-0.2l1.8-3.1c0.1-0.1,0.1-0.2,0.1-0.4v-7.7c0-0.4-0.3-0.7-0.6-0.7
				c-0.8-0.1-1.3-0.7-1.3-1.5c0-0.8,0.7-1.5,1.5-1.5h7.2c0.1,0,0.2,0,0.3,0c-1.7,3.1-3,6.4-3,8.3c0,3.6,2.1,6.7,5.1,8.2L36.3,41.2z
				 M33.9,34.1C33.9,34.1,33.9,34.1,33.9,34.1c-2.7-1.2-4.6-3.9-4.6-7c0-3.4,5.1-11.9,7.7-15.8c2.6,4,7.7,12.5,7.7,15.9
				c0,4.3-3.5,7.7-7.7,7.7C35.9,34.8,34.8,34.6,33.9,34.1z"/>
			<path class="st1" d="M29.7,35.6c-1.4,0-2.6,1.2-2.6,2.6c0,1.4,1.2,2.6,2.6,2.6c1.4,0,2.6-1.2,2.6-2.6
				C32.2,36.7,31.1,35.6,29.7,35.6z"/>
		</g>
	</g>
</g>
</svg>
