<?xml version="1.0" encoding="utf-8"?>
<!-- Generator: Adobe Illustrator 16.0.0, SVG Export Plug-In . SVG Version: 6.00 Build 0)  -->
<!DOCTYPE svg PUBLIC "-//W3C//DTD SVG 1.1//EN" "http://www.w3.org/Graphics/SVG/1.1/DTD/svg11.dtd">
<svg version="1.1" id="Layer_1" xmlns="http://www.w3.org/2000/svg" xmlns:xlink="http://www.w3.org/1999/xlink" x="0px" y="0px"
	 width="43.31px" height="43.23px" viewBox="0 0 43.31 43.23" enable-background="new 0 0 43.31 43.23" xml:space="preserve">
<g>
	<path fill="#FFD15D" d="M43.326,41.584c0,0.541-0.182,0.99-0.541,1.354c-0.363,0.271-0.725,0.451-1.266,0.451H1.789
		c-0.451,0-0.903-0.18-1.264-0.451c-0.361-0.363-0.542-0.813-0.542-1.354V15.125h43.344V41.584z"/>
	<path fill="#F7B64C" d="M42.785,42.938c-0.363,0.271-0.725,0.451-1.266,0.451H1.789c-0.451,0-0.903-0.18-1.264-0.451l21.129-18.15
		L42.785,42.938z"/>
	<path fill="#425A6C" d="M43.326,15.125l-6.141,4.426L22.828,29.842c-0.722,0.543-1.716,0.543-2.438,0L6.123,19.551l-6.141-4.426
		l6.141-4.426l13.364-9.569l0.994-0.723c0.722-0.542,1.716-0.542,2.436,0l0.996,0.723l6.411,4.604l3.161,2.259l3.701,2.707
		L43.326,15.125z"/>
	<path fill="#F3F3F3" d="M37.186,6.73v12.821L22.828,29.842c-0.722,0.543-1.716,0.543-2.438,0L6.123,19.551V2.934
		c0-0.993,0.813-1.805,1.806-1.805h23.568L37.186,6.73z"/>
	<path fill="#CED6E0" d="M31.586,5.284c0,0.812,0.633,1.446,1.445,1.446h4.154l-5.6-5.601V5.284L31.586,5.284z"/>
	<path fill="#44C8F5" d="M26.982,19.279h1.442c-0.449,0.992-1.173,1.715-2.165,2.258c-1.084,0.631-2.438,0.902-4.063,0.902
		c-1.536,0-2.89-0.271-3.973-0.813c-1.083-0.543-1.987-1.264-2.528-2.348c-0.542-0.994-0.813-2.167-0.813-3.34
		c0-1.354,0.27-2.528,0.902-3.702c0.632-1.175,1.445-1.987,2.528-2.529c1.084-0.542,2.348-0.813,3.702-0.813
		c1.172,0,2.257,0.271,3.161,0.725c0.902,0.449,1.627,1.082,2.076,1.986c0.453,0.81,0.724,1.806,0.724,2.797
		c0,1.174-0.362,2.259-1.085,3.25c-0.902,1.267-2.076,1.807-3.521,1.807c-0.36,0-0.723-0.092-0.904-0.18
		c-0.18-0.182-0.361-0.361-0.361-0.631c-0.542,0.541-1.174,0.811-1.896,0.811c-0.812,0-1.445-0.27-1.896-0.811
		c-0.542-0.543-0.813-1.265-0.813-2.17c0-1.082,0.271-2.076,0.903-3.067c0.722-1.085,1.716-1.627,2.89-1.627
		c0.813,0,1.445,0.36,1.895,0.993l0.183-0.811h1.896l-1.082,5.055c-0.092,0.362-0.092,0.542-0.092,0.631
		c0,0.091,0,0.183,0.092,0.271c0.089,0.091,0.089,0.091,0.178,0.091c0.183,0,0.543-0.18,0.904-0.451
		c0.451-0.36,0.902-0.813,1.174-1.444c0.271-0.632,0.451-1.263,0.451-1.896c0-1.174-0.451-2.167-1.262-2.89
		c-0.814-0.812-1.988-1.174-3.523-1.174c-1.264,0-2.348,0.271-3.251,0.812c-0.902,0.542-1.535,1.267-1.986,2.169
		c-0.451,0.903-0.632,1.895-0.632,2.979c0,0.993,0.271,1.896,0.723,2.709c0.542,0.811,1.173,1.444,2.077,1.805
		c0.902,0.361,1.896,0.543,3.07,0.543c1.082,0,2.078-0.182,2.89-0.451C25.807,20.363,26.439,19.91,26.982,19.279z M19.307,16.389
		c0,0.632,0.09,0.994,0.361,1.354c0.27,0.271,0.541,0.452,0.902,0.452c0.271,0,0.542-0.09,0.723-0.181s0.361-0.271,0.541-0.451
		c0.271-0.271,0.453-0.723,0.632-1.263c0.181-0.542,0.271-1.085,0.271-1.538c0-0.54-0.09-0.902-0.361-1.263
		c-0.271-0.27-0.542-0.451-0.903-0.451c-0.361,0-0.813,0.182-1.084,0.451c-0.36,0.271-0.631,0.723-0.813,1.356
		C19.397,15.396,19.307,15.939,19.307,16.389z"/>
</g>
</svg>
