<?xml version="1.0" encoding="utf-8"?>
<!-- Generator: Adobe Illustrator 16.0.0, SVG Export Plug-In . SVG Version: 6.00 Build 0)  -->
<!DOCTYPE svg PUBLIC "-//W3C//DTD SVG 1.1//EN" "http://www.w3.org/Graphics/SVG/1.1/DTD/svg11.dtd">
<svg version="1.1" id="Layer_1" xmlns="http://www.w3.org/2000/svg" xmlns:xlink="http://www.w3.org/1999/xlink" x="0px" y="0px"
	 width="43.31px" height="43.23px" viewBox="0 0 43.31 43.23" enable-background="new 0 0 43.31 43.23" xml:space="preserve">
<g>
	<ellipse fill="#FFD15D" cx="21.697" cy="21.604" rx="21.612" ry="21.604"/>
	<path fill="#F7B64C" d="M43.31,21.604c0-0.47-0.017-0.937-0.046-1.401c-4.783-4.781-9.68-9.666-9.68-9.666
		c-2.966-3.182-7.192-5.173-11.887-5.173c-8.971,0-16.245,7.272-16.245,16.24c0,4.693,1.991,8.917,5.173,11.882
		c0,0,5.422,5.429,9.67,9.675c0.464,0.03,0.931,0.046,1.401,0.046C33.634,43.207,43.31,33.536,43.31,21.604z"/>
	<ellipse fill="#F4F0D4" cx="21.697" cy="21.604" rx="16.247" ry="16.24"/>
	<path fill="#E7E3C8" d="M37.944,21.604c0,8.968-7.275,16.241-16.247,16.241V5.364C30.669,5.364,37.944,12.636,37.944,21.604z"/>
	<ellipse fill="#FFFFFF" cx="21.697" cy="21.604" rx="11.651" ry="11.646"/>
	<path fill="#FFEC97" d="M33.349,21.604c0,6.432-5.216,11.646-11.651,11.646V9.958C28.133,9.958,33.349,15.171,33.349,21.604z"/>
	<rect x="20.736" y="12.068" fill="#44C8F5" width="1.923" height="9.156"/>
	<g>
		<rect x="21.697" y="12.068" fill="#44C8F5" width="0.962" height="9.156"/>
		
			<rect x="23.854" y="20.004" transform="matrix(0.4904 -0.8715 0.8715 0.4904 -7.6955 33.521)" fill="#44C8F5" width="1.922" height="6.674"/>
	</g>
	<circle fill="#FBA924" cx="21.697" cy="21.604" r="2.151"/>
	<path fill="#BF6428" d="M23.852,21.604c0,1.188-0.965,2.151-2.154,2.151v-4.303c0.345,0,0.673,0.082,0.962,0.228
		C23.365,20.03,23.852,20.761,23.852,21.604z"/>
</g>
</svg>
