<?xml version="1.0" encoding="utf-8"?>
<!-- Generator: Adobe Illustrator 16.0.0, SVG Export Plug-In . SVG Version: 6.00 Build 0)  -->
<!DOCTYPE svg PUBLIC "-//W3C//DTD SVG 1.1//EN" "http://www.w3.org/Graphics/SVG/1.1/DTD/svg11.dtd">
<svg version="1.1" id="Layer_1" xmlns="http://www.w3.org/2000/svg" xmlns:xlink="http://www.w3.org/1999/xlink" x="0px" y="0px"
	 width="43.31px" height="43.23px" viewBox="0 0 43.31 43.23" enable-background="new 0 0 43.31 43.23" xml:space="preserve">
<g>
	<path fill="#F4F0D4" d="M33.852,38.618c1.863,0.808,7.011,3.134,8.843,3.875c0.203,0.102,0.677,0.068,0.608-0.371
		c-0.406-4.379-2.878-29.483-3.317-33.93c-0.069-0.643-0.272-0.743-0.747-0.909c-1.455-0.541-4.978-1.787-6.437-2.294
		c-0.507-0.202-0.812-0.203-1.354-0.001c-2.271,0.642-9.452,2.833-9.452,2.833s-7.486-2.26-9.822-2.899
		c-0.508-0.168-0.78-0.203-1.355,0.032c-1.49,0.474-4.945,1.754-6.436,2.295c-0.61,0.237-0.678,0.505-0.746,0.91
		c-0.473,4.346-3.184,29.55-3.658,33.964c-0.034,0.506,0.407,0.473,0.813,0.337c2.032-0.808,7.182-3.032,9.01-3.772
		c0.373-0.17,0.746-0.27,1.356-0.001c2.065,0.842,8.129,3.57,10.127,4.38c0.441,0.203,0.847,0.237,1.354,0.002
		c2.001-0.844,7.859-3.539,9.825-4.414C32.835,38.452,33.413,38.417,33.852,38.618z"/>
	<path fill="#E7E3C8" d="M11.733,4.82c-0.271-0.035-0.541,0-0.914,0.134c-1.49,0.474-4.945,1.754-6.436,2.295
		c-0.61,0.237-0.678,0.505-0.746,0.91c-0.473,4.346-3.184,29.55-3.658,33.964c-0.034,0.506,0.407,0.473,0.813,0.337
		c2.032-0.808,7.182-3.032,9.01-3.772c0.271-0.1,0.508-0.2,0.882-0.135L11.733,4.82z M31.956,4.82
		c-0.136,0.033-0.27,0.067-0.439,0.133c-2.272,0.676-9.182,2.766-9.485,2.867l0,35.38c0.203-0.002,0.44-0.067,0.677-0.169
		c2-0.842,7.859-3.539,9.824-4.413c0.137-0.066,0.304-0.102,0.473-0.134L31.956,4.82z"/>
	<path fill="#EEC75E" d="M15.798,40.675l5.929-5.9l6.029,6.002c1.252-0.575,2.471-1.146,3.456-1.584l-21.646-21.5l10.5-10.443
		c-1.083-0.337-2.507-0.742-3.862-1.146l-9.146,9.097L3.3,11.458c-0.135,1.281-0.306,2.834-0.475,4.55l16.394,16.31l-6.875,6.839
		C13.292,39.563,14.545,40.1,15.798,40.675L15.798,40.675z"/>
	<path fill="#E3BD5A" d="M11.394,15.873l0.17-5.154l-4.505,4.445L3.3,11.458c-0.135,1.281-0.306,2.834-0.475,4.55l8.333,8.289
		l0.133-4.884l-1.691-1.687L11.394,15.873z M21.998,35.08l5.725,5.693c1.252-0.572,2.471-1.144,3.454-1.582l-9.179-9.133
		L21.998,35.08z"/>
	<path fill="#44C8F5" d="M27.077,0.071c5.422-0.002,9.824,4.378,9.825,9.805c-0.001,0.101-0.035,2.628-0.881,4.415
		c-2,4.616-6.81,9.502-8.401,11.085c-0.407,0.372-0.577,0.439-1.082-0.035c-1.627-1.584-6.369-6.399-8.369-10.982
		c-0.712-1.348-0.914-4.249-0.914-4.482C17.255,4.45,21.658,0.07,27.077,0.071z"/>
	<path fill="#FFFFFF" d="M27.079,4.786c-2.813,0-5.083,2.26-5.082,5.056c0,2.796,2.271,5.053,5.081,5.055
		c2.811,0,5.082-2.258,5.081-5.054C32.159,7.047,29.889,4.787,27.079,4.786z M27.077,12.875c-1.692,0-3.047-1.348-3.048-3.034
		c0-1.683,1.355-3.032,3.048-3.032c1.692,0,3.05,1.349,3.05,3.032C30.126,11.525,28.77,12.875,27.077,12.875z"/>
</g>
</svg>
