<?xml version="1.0" encoding="utf-8"?>
<!-- Generator: Adobe Illustrator 16.0.0, SVG Export Plug-In . SVG Version: 6.00 Build 0)  -->
<!DOCTYPE svg PUBLIC "-//W3C//DTD SVG 1.1//EN" "http://www.w3.org/Graphics/SVG/1.1/DTD/svg11.dtd">
<svg version="1.1" id="Layer_1" xmlns="http://www.w3.org/2000/svg" xmlns:xlink="http://www.w3.org/1999/xlink" x="0px" y="0px"
	 width="24.51px" height="24.51px" viewBox="0 0 24.51 24.51" enable-background="new 0 0 24.51 24.51" xml:space="preserve">
<g>
	<defs>
		<path id="SVGID_1_" d="M-0.069,12.221c0,6.777,5.5,12.27,12.29,12.27c6.787,0,12.288-5.492,12.288-12.27
			c0-6.775-5.501-12.267-12.288-12.267C5.431-0.046-0.069,5.446-0.069,12.221"/>
	</defs>
	<clipPath id="SVGID_2_">
		<use xlink:href="#SVGID_1_"  overflow="visible"/>
	</clipPath>
	<path clip-path="url(#SVGID_2_)" fill="#00568F" d="M-0.557-0.118v25.023h13.35v-9.664H9.529v-3.948h3.264V7.98
		c0-2.41,1.958-4.364,4.372-4.364h3.412v3.549h-2.441c-0.768,0-1.39,0.621-1.39,1.386v2.743h3.769l-0.521,3.948h-3.247v9.664h7.765
		V-0.118H-0.557z"/>
</g>
</svg>
