<?xml version="1.0" encoding="utf-8"?>
<!-- Generator: Adobe Illustrator 16.0.0, SVG Export Plug-In . SVG Version: 6.00 Build 0)  -->
<!DOCTYPE svg PUBLIC "-//W3C//DTD SVG 1.1//EN" "http://www.w3.org/Graphics/SVG/1.1/DTD/svg11.dtd">
<svg version="1.1" id="Layer_1" xmlns="http://www.w3.org/2000/svg" xmlns:xlink="http://www.w3.org/1999/xlink" x="0px" y="0px"
	 width="68.49px" height="68.49px" viewBox="0 0 68.49 68.49" enable-background="new 0 0 68.49 68.49" xml:space="preserve">
<g>
	<path fill="#44C8F5" d="M18.094,40.037L5.98,60.631c-0.131,0.221-0.197,0.473-0.197,0.727c0,0.789,0.639,1.428,1.428,1.428h9.912
		V59.93H9.705l10.85-18.447L18.094,40.037z"/>
	<path fill="#44C8F5" d="M65.047,32.82H42.809c-3.152,0-5.707,2.555-5.707,5.705V55.1L24.26,35.242v-9.873
		c1.473-0.779,3.018-1.42,4.635-1.836c0.629-0.164,1.07-0.732,1.07-1.381V2.854h7.137v18.963c0,0.688,0.484,1.275,1.158,1.402
		c5.002,0.955,9.504,3.664,12.688,7.639l2.229-1.787c-3.357-4.182-8.008-7.139-13.225-8.404V1.424c0-0.785-0.635-1.426-1.424-1.426
		h-9.986c-0.789,0-1.432,0.641-1.432,1.426V21.07c-0.973,0.303-1.924,0.68-2.85,1.098v-5.047c0-0.789-0.643-1.424-1.432-1.424
		h-7.129c-0.789,0-1.432,0.635-1.432,1.424v18.16L0.971,57.889C0.334,58.969,0,60.203,0,61.453c0,3.887,3.15,7.037,7.037,7.037
		H33.02c1.334,0,2.643-0.387,3.762-1.109c0.727-0.469,1.318-1.064,1.803-1.723c1.301,1.709,3.338,2.83,5.648,2.832h12.842
		c3.939-0.006,7.131-3.195,7.137-7.137V41.971l3.273-3.271c0.646-0.648,1.008-1.521,1.008-2.436
		C68.492,34.361,66.951,32.82,65.047,32.82z M33.02,65.635H7.037c-0.75,0.004-1.486-0.193-2.127-0.576
		c-1.994-1.17-2.656-3.73-1.486-5.725l13.502-22.939c0.131-0.217,0.197-0.469,0.197-0.725V18.547h4.281V35.67
		c0,0.277,0.08,0.547,0.229,0.775L36.443,59.34C36.871,60,37.1,60.77,37.1,61.555C37.1,63.809,35.273,65.635,33.02,65.635z
		 M65.465,36.68l-3.689,3.691c-0.266,0.268-0.418,0.629-0.418,1.01v19.973c0,2.369-1.914,4.281-4.279,4.281H44.234
		c-2.363,0-4.279-1.912-4.279-4.281V38.525c0-1.58,1.277-2.855,2.854-2.855h22.238c0.158,0,0.309,0.066,0.422,0.174
		C65.695,36.078,65.695,36.451,65.465,36.68z"/>
	<path fill="#44C8F5" d="M55.65,59.93h-4.281v2.855h5.709c0.785,0,1.428-0.643,1.428-1.432V41.381H55.65V59.93z"/>
	<path fill="#44C8F5" d="M55.65,24.969c0,2.762,2.234,4.994,4.996,4.994c2.756,0,4.99-2.232,4.99-4.994
		c0-2.756-2.234-4.992-4.99-4.992C57.885,19.977,55.65,22.213,55.65,24.969z M60.646,22.828c1.18,0,2.141,0.959,2.141,2.141
		c0,1.184-0.961,2.139-2.141,2.139c-1.184,0-2.141-0.955-2.141-2.139C58.506,23.787,59.463,22.828,60.646,22.828z"/>
	<path fill="#44C8F5" d="M55.65,18.547c2.363,0,4.281-1.912,4.281-4.281c0-2.361-1.918-4.281-4.281-4.281
		c-2.365,0-4.281,1.92-4.281,4.281C51.369,16.635,53.285,18.547,55.65,18.547z M55.65,12.84c0.789,0,1.428,0.641,1.428,1.426
		c0,0.789-0.639,1.432-1.428,1.432s-1.426-0.643-1.426-1.432C54.225,13.48,54.861,12.84,55.65,12.84z"/>
	<path fill="#44C8F5" d="M4.996,21.402c2.756,0,4.99-2.234,4.99-4.996c0-2.756-2.234-4.99-4.99-4.99C2.234,11.416,0,13.65,0,16.406
		C0,19.168,2.234,21.402,4.996,21.402z M4.996,14.266c1.182,0,2.141,0.959,2.141,2.141c0,1.184-0.959,2.141-2.141,2.141
		c-1.184,0-2.141-0.957-2.141-2.141C2.855,15.225,3.813,14.266,4.996,14.266z"/>
	<path fill="#44C8F5" d="M11.418,9.984c2.361,0,4.281-1.912,4.281-4.279c0-2.363-1.92-4.281-4.281-4.281
		c-2.369,0-4.281,1.918-4.281,4.281C7.137,8.072,9.049,9.984,11.418,9.984z M11.418,4.279c0.785,0,1.424,0.639,1.424,1.426
		c0,0.789-0.639,1.43-1.424,1.43c-0.789,0-1.432-0.641-1.432-1.43C9.986,4.918,10.629,4.279,11.418,4.279z"/>
	<rect x="42.809" y="41.381" fill="#44C8F5" width="4.279" height="2.85"/>
	<rect x="42.809" y="47.086" fill="#44C8F5" width="2.855" height="2.855"/>
	<rect x="42.809" y="52.793" fill="#44C8F5" width="4.279" height="2.855"/>
	<rect x="42.809" y="58.504" fill="#44C8F5" width="2.855" height="2.85"/>
	<rect x="2.855" y="25.684" fill="#44C8F5" width="2.85" height="2.855"/>
	<rect x="7.137" y="32.82" fill="#44C8F5" width="2.85" height="2.85"/>
	<rect x="31.391" y="38.525" fill="#44C8F5" width="2.855" height="2.855"/>
	<rect x="28.541" y="32.82" fill="#44C8F5" width="2.85" height="2.85"/>
	<rect x="27.109" y="27.107" fill="#44C8F5" width="2.855" height="2.855"/>
	<rect x="28.541" y="58.504" fill="#44C8F5" width="2.85" height="2.85"/>
	<rect x="24.26" y="52.793" fill="#44C8F5" width="2.85" height="2.855"/>
</g>
</svg>
