<?xml version="1.0" encoding="utf-8"?>
<!-- Generator: Adobe Illustrator 16.0.0, SVG Export Plug-In . SVG Version: 6.00 Build 0)  -->
<!DOCTYPE svg PUBLIC "-//W3C//DTD SVG 1.1//EN" "http://www.w3.org/Graphics/SVG/1.1/DTD/svg11.dtd">
<svg version="1.1" id="Layer_1" xmlns="http://www.w3.org/2000/svg" xmlns:xlink="http://www.w3.org/1999/xlink" x="0px" y="0px"
	 width="103.77px" height="22.6px" viewBox="0 0 103.77 22.6" enable-background="new 0 0 103.77 22.6" xml:space="preserve">
<g>
	<path fill="#FFFFFF" d="M0.071,9.164l2.604-0.252c0.157,0.873,0.475,1.514,0.954,1.924c0.479,0.41,1.126,0.615,1.94,0.615
		c0.861,0,1.512-0.182,1.949-0.546s0.656-0.792,0.656-1.278c0-0.314-0.092-0.581-0.276-0.8C7.714,8.605,7.392,8.414,6.935,8.251
		C6.621,8.143,5.906,7.951,4.792,7.674C3.355,7.317,2.349,6.882,1.771,6.363C0.956,5.634,0.55,4.745,0.55,3.697
		c0-0.674,0.19-1.306,0.573-1.892C1.506,1.218,2.058,0.77,2.778,0.462c0.721-0.307,1.59-0.46,2.61-0.46
		c1.663,0,2.916,0.365,3.757,1.093c0.841,0.729,1.282,1.702,1.324,2.918L7.793,4.131c-0.114-0.68-0.36-1.17-0.737-1.469
		C6.679,2.364,6.114,2.216,5.36,2.216c-0.778,0-1.387,0.159-1.826,0.479C3.25,2.899,3.109,3.173,3.109,3.517
		c0,0.313,0.132,0.582,0.397,0.804C3.845,4.604,4.664,4.9,5.966,5.206C7.269,5.513,8.231,5.831,8.855,6.16
		c0.625,0.329,1.113,0.777,1.465,1.346c0.353,0.569,0.529,1.272,0.529,2.11c0,0.759-0.21,1.47-0.633,2.132
		c-0.422,0.663-1.019,1.155-1.791,1.478c-0.771,0.321-1.733,0.482-2.884,0.482c-1.676,0-2.963-0.387-3.862-1.161
		C0.782,11.774,0.245,10.646,0.071,9.164z"/>
	<path fill="#FFFFFF" d="M12.559,6.933c0-1.349,0.202-2.482,0.606-3.397c0.302-0.675,0.713-1.279,1.234-1.816
		c0.521-0.536,1.092-0.934,1.713-1.193c0.826-0.349,1.778-0.523,2.858-0.523c1.953,0,3.516,0.605,4.688,1.816
		c1.173,1.21,1.76,2.895,1.76,5.05c0,2.139-0.582,3.812-1.746,5.02c-1.163,1.207-2.719,1.812-4.666,1.812
		c-1.971,0-3.539-0.601-4.703-1.802C13.141,10.696,12.559,9.041,12.559,6.933z M15.317,6.842c0,1.5,0.347,2.638,1.04,3.411
		c0.693,0.774,1.574,1.161,2.642,1.161c1.067,0,1.942-0.384,2.627-1.152c0.684-0.768,1.026-1.92,1.026-3.456
		c0-1.519-0.334-2.65-1-3.398c-0.666-0.747-1.551-1.12-2.653-1.12c-1.103,0-1.993,0.377-2.668,1.133
		C15.655,4.178,15.317,5.318,15.317,6.842z"/>
	<g>
		<g>
			<path fill="#FFFFFF" d="M0.071,22.469v-5.544h2.093c0.368,0,0.649,0.018,0.843,0.054c0.275,0.045,0.502,0.131,0.686,0.258
				c0.185,0.127,0.332,0.307,0.445,0.536c0.113,0.229,0.167,0.481,0.167,0.757c0,0.471-0.149,0.871-0.45,1.195
				c-0.301,0.326-0.842,0.49-1.627,0.49H0.805v2.254H0.071z M0.805,19.561h1.434c0.475,0,0.812-0.088,1.011-0.266
				c0.2-0.176,0.3-0.424,0.3-0.744c0-0.232-0.059-0.43-0.177-0.595s-0.271-0.274-0.463-0.327c-0.125-0.033-0.353-0.049-0.687-0.049
				H0.805V19.561z"/>
			<path fill="#FFFFFF" d="M5.016,19.769c0-0.919,0.248-1.64,0.743-2.161c0.494-0.52,1.132-0.781,1.915-0.781
				c0.512,0,0.974,0.123,1.385,0.367c0.412,0.244,0.724,0.586,0.94,1.023c0.215,0.438,0.323,0.934,0.323,1.487
				c0,0.562-0.114,1.065-0.341,1.509c-0.226,0.443-0.547,0.779-0.964,1.008c-0.417,0.229-0.865,0.342-1.348,0.342
				c-0.522,0-0.989-0.127-1.4-0.379c-0.411-0.252-0.722-0.594-0.934-1.031C5.122,20.717,5.016,20.254,5.016,19.769z M5.773,19.779
				c0,0.67,0.18,1.195,0.54,1.578c0.36,0.385,0.811,0.578,1.353,0.578c0.553,0,1.008-0.195,1.366-0.584
				c0.356-0.387,0.534-0.938,0.534-1.651c0-0.45-0.075-0.845-0.229-1.181c-0.152-0.336-0.376-0.598-0.67-0.783
				s-0.625-0.277-0.99-0.277c-0.52,0-0.967,0.178-1.343,0.534C5.961,18.352,5.773,18.946,5.773,19.779z"/>
			<path fill="#FFFFFF" d="M11.238,22.469v-5.544h0.734v4.89h2.732v0.654H11.238z"/>
			<path fill="#FFFFFF" d="M16.566,22.469v-2.35l-2.138-3.194h0.893l1.094,1.671c0.202,0.313,0.389,0.625,0.563,0.938
				c0.166-0.29,0.37-0.616,0.606-0.979l1.075-1.63h0.855l-2.214,3.194v2.35H16.566z"/>
			<path fill="#FFFFFF" d="M24.131,20.523l0.734,0.186c-0.153,0.604-0.431,1.064-0.83,1.379c-0.401,0.316-0.889,0.475-1.467,0.475
				c-0.597,0-1.084-0.123-1.458-0.365s-0.66-0.594-0.856-1.057c-0.195-0.461-0.292-0.957-0.292-1.485c0-0.577,0.11-1.082,0.33-1.51
				c0.222-0.431,0.535-0.757,0.943-0.98c0.407-0.224,0.856-0.335,1.345-0.335c0.554,0,1.021,0.143,1.4,0.425
				c0.378,0.282,0.642,0.679,0.79,1.19l-0.722,0.171c-0.128-0.405-0.315-0.698-0.56-0.882c-0.245-0.184-0.554-0.275-0.924-0.275
				c-0.425,0-0.783,0.102-1.069,0.307c-0.285,0.203-0.486,0.478-0.603,0.821c-0.117,0.344-0.174,0.698-0.174,1.064
				c0,0.472,0.069,0.884,0.206,1.235c0.138,0.352,0.352,0.613,0.642,0.787c0.29,0.174,0.604,0.262,0.942,0.262
				c0.412,0,0.759-0.119,1.044-0.355C23.837,21.344,24.031,20.99,24.131,20.523z"/>
			<path fill="#FFFFFF" d="M25.739,22.469v-5.544h0.735v4.89h2.731v0.654H25.739z"/>
			<path fill="#FFFFFF" d="M30.206,22.469v-5.544h0.733v5.544H30.206z"/>
			<path fill="#FFFFFF" d="M32.226,22.469v-5.544h0.753l2.913,4.353v-4.353h0.705v5.544h-0.753l-2.914-4.356v4.356H32.226z"/>
			<path fill="#FFFFFF" d="M37.956,22.469v-5.544h0.734v5.544H37.956z"/>
			<path fill="#FFFFFF" d="M43.942,20.523l0.735,0.186c-0.153,0.604-0.432,1.064-0.83,1.379c-0.401,0.316-0.889,0.475-1.467,0.475
				c-0.599,0-1.085-0.123-1.459-0.365c-0.375-0.242-0.66-0.594-0.855-1.057c-0.195-0.461-0.292-0.957-0.292-1.485
				c0-0.577,0.109-1.082,0.33-1.51c0.221-0.431,0.534-0.757,0.942-0.98c0.407-0.224,0.856-0.335,1.345-0.335
				c0.554,0,1.021,0.143,1.4,0.425c0.379,0.282,0.642,0.679,0.791,1.19l-0.722,0.171c-0.128-0.405-0.315-0.698-0.561-0.882
				c-0.246-0.184-0.553-0.275-0.923-0.275c-0.426,0-0.784,0.102-1.07,0.307c-0.286,0.203-0.487,0.478-0.603,0.821
				s-0.174,0.698-0.174,1.064c0,0.472,0.069,0.884,0.206,1.235s0.352,0.613,0.641,0.787c0.291,0.174,0.604,0.262,0.942,0.262
				c0.413,0,0.76-0.119,1.044-0.355C43.648,21.344,43.842,20.99,43.942,20.523z"/>
			<path fill="#FFFFFF" d="M50.818,21.814c-0.224,0.25-0.469,0.436-0.735,0.563c-0.264,0.123-0.55,0.186-0.856,0.186
				c-0.569,0-1.02-0.191-1.352-0.574c-0.27-0.313-0.405-0.662-0.405-1.047c0-0.344,0.11-0.652,0.331-0.93
				c0.221-0.275,0.55-0.518,0.989-0.727c-0.25-0.287-0.416-0.521-0.5-0.699c-0.083-0.181-0.125-0.353-0.125-0.52
				c0-0.332,0.13-0.621,0.392-0.867c0.26-0.246,0.589-0.369,0.986-0.369c0.378,0,0.687,0.117,0.928,0.348
				c0.241,0.233,0.362,0.511,0.362,0.836c0,0.527-0.35,0.978-1.049,1.351l0.996,1.267c0.114-0.223,0.202-0.479,0.266-0.771
				l0.706,0.15c-0.12,0.484-0.284,0.883-0.49,1.195c0.254,0.338,0.543,0.621,0.866,0.852l-0.458,0.541
				C51.395,22.42,51.112,22.16,50.818,21.814z M50.392,21.277l-1.25-1.547c-0.369,0.219-0.618,0.424-0.746,0.611
				c-0.129,0.188-0.192,0.375-0.192,0.557c0,0.225,0.089,0.457,0.269,0.701c0.177,0.24,0.433,0.361,0.761,0.361
				c0.203,0,0.416-0.063,0.633-0.189C50.085,21.643,50.259,21.479,50.392,21.277z M49.433,18.926
				c0.296-0.174,0.487-0.328,0.575-0.457c0.086-0.132,0.129-0.277,0.129-0.437c0-0.188-0.06-0.343-0.179-0.462
				c-0.12-0.121-0.271-0.18-0.448-0.18c-0.186,0-0.339,0.059-0.461,0.178c-0.123,0.117-0.184,0.263-0.184,0.434
				c0,0.086,0.023,0.176,0.066,0.271c0.045,0.094,0.111,0.195,0.199,0.3L49.433,18.926z"/>
			<path fill="#FFFFFF" d="M55.033,22.469v-5.544h1.104l1.313,3.925c0.122,0.365,0.209,0.639,0.267,0.82
				c0.063-0.201,0.161-0.498,0.295-0.889l1.329-3.856h0.985v5.544h-0.706V17.83l-1.612,4.639h-0.662l-1.604-4.719v4.719H55.033z"/>
			<path fill="#FFFFFF" d="M60.903,22.469l2.131-5.544h0.792l2.27,5.544h-0.835l-0.646-1.68h-2.322l-0.608,1.68H60.903z
				 M62.504,20.191h1.882l-0.579-1.535c-0.176-0.465-0.309-0.85-0.396-1.148c-0.069,0.355-0.17,0.708-0.296,1.058L62.504,20.191z"/>
			<path fill="#FFFFFF" d="M67.519,22.469V17.58h-1.827v-0.655h4.397v0.655h-1.836v4.889H67.519z"/>
			<path fill="#FFFFFF" d="M70.857,22.469v-5.544h4.011v0.655H71.59v1.697h3.069v0.648H71.59v1.889h3.408v0.654H70.857z"/>
			<path fill="#FFFFFF" d="M76.021,22.469v-5.544h2.459c0.495,0,0.872,0.051,1.13,0.149c0.257,0.1,0.462,0.275,0.614,0.527
				c0.157,0.252,0.232,0.531,0.232,0.836c0,0.393-0.127,0.725-0.383,0.995c-0.253,0.27-0.649,0.44-1.181,0.513
				c0.195,0.094,0.342,0.186,0.443,0.277c0.215,0.197,0.418,0.441,0.608,0.736l0.965,1.51h-0.923l-0.732-1.154
				c-0.215-0.332-0.394-0.586-0.529-0.764c-0.139-0.176-0.265-0.299-0.373-0.371c-0.11-0.07-0.224-0.119-0.337-0.146
				c-0.082-0.018-0.219-0.027-0.408-0.027h-0.851v2.463H76.021z M76.757,19.372h1.578c0.335,0,0.598-0.034,0.787-0.104
				s0.333-0.18,0.43-0.334c0.101-0.151,0.149-0.316,0.149-0.496c0-0.262-0.097-0.477-0.288-0.646
				c-0.189-0.169-0.49-0.254-0.901-0.254h-1.755V19.372z"/>
			<path fill="#FFFFFF" d="M80.999,22.469l2.13-5.544h0.793l2.269,5.544h-0.835l-0.646-1.68h-2.321l-0.609,1.68H80.999z
				 M82.6,20.191h1.881l-0.579-1.535c-0.177-0.465-0.307-0.85-0.394-1.148c-0.071,0.355-0.17,0.708-0.298,1.058L82.6,20.191z"/>
			<path fill="#FFFFFF" d="M86.77,22.469v-5.544h0.754l2.913,4.353v-4.353h0.705v5.544h-0.755l-2.912-4.356v4.356H86.77z"/>
			<path fill="#FFFFFF" d="M92.499,22.469v-5.544h0.734v5.544H92.499z"/>
			<path fill="#FFFFFF" d="M95.938,22.469V17.58H94.11v-0.655h4.397v0.655h-1.834v4.889H95.938z"/>
			<path fill="#FFFFFF" d="M100.825,22.469v-2.35l-2.138-3.194h0.892l1.095,1.671c0.201,0.313,0.391,0.625,0.563,0.938
				c0.165-0.29,0.369-0.616,0.605-0.979l1.076-1.63h0.855l-2.215,3.194v2.35H100.825z"/>
		</g>
		<path fill="#FFFFFF" d="M30.89,13.474L26.151,0.228h2.903l3.356,9.804l3.246-9.804h2.84l-4.748,13.246H30.89z"/>
		<path fill="#FFFFFF" d="M50.441,13.474h-2.912l-1.158-3.008h-5.299l-1.095,3.008h-2.84l5.165-13.246h2.83L50.441,13.474z
			 M45.512,8.234l-1.827-4.915l-1.791,4.915H45.512z"/>
		<path fill="#FFFFFF" d="M51.888,13.474V0.228h2.604l5.427,8.846V0.228h2.486v13.246H59.72l-5.345-8.637v8.637H51.888z"/>
		<path fill="#FFFFFF" d="M65.245,13.474V0.228h2.604l5.427,8.846V0.228h2.486v13.246h-2.684l-5.346-8.637v8.637H65.245z"/>
		<path fill="#FFFFFF" d="M78.603,13.474V0.228h5.633c1.418,0,2.447,0.119,3.089,0.357c0.643,0.238,1.157,0.662,1.542,1.27
			s0.579,1.304,0.579,2.086c0,0.995-0.291,1.815-0.879,2.462c-0.584,0.648-1.457,1.056-2.621,1.225
			c0.58,0.338,1.057,0.708,1.434,1.111c0.377,0.404,0.886,1.121,1.522,2.151l1.619,2.583h-3.2l-1.936-2.882
			c-0.688-1.029-1.157-1.679-1.411-1.947c-0.253-0.268-0.52-0.452-0.806-0.551c-0.283-0.099-0.73-0.148-1.347-0.148h-0.542v5.529
			H78.603z M81.279,5.83h1.981c1.282,0,2.085-0.054,2.404-0.162c0.318-0.108,0.57-0.295,0.75-0.561
			c0.182-0.265,0.271-0.596,0.271-0.993c0-0.446-0.118-0.807-0.355-1.081c-0.238-0.274-0.575-0.447-1.009-0.519
			c-0.217-0.03-0.87-0.046-1.954-0.046h-2.089V5.83z"/>
		<path fill="#FFFFFF" d="M103.924,13.474h-2.913l-1.157-3.008h-5.299l-1.095,3.008h-2.838l5.162-13.246h2.83L103.924,13.474z
			 M98.996,8.234l-1.827-4.915l-1.791,4.915H98.996z"/>
	</g>
</g>
</svg>
