<?xml version="1.0" encoding="utf-8"?>
<!-- Generator: Adobe Illustrator 16.0.0, SVG Export Plug-In . SVG Version: 6.00 Build 0)  -->
<!DOCTYPE svg PUBLIC "-//W3C//DTD SVG 1.1//EN" "http://www.w3.org/Graphics/SVG/1.1/DTD/svg11.dtd">
<svg version="1.1" id="Layer_1" xmlns="http://www.w3.org/2000/svg" xmlns:xlink="http://www.w3.org/1999/xlink" x="0px" y="0px"
	 width="59.5px" height="68.49px" viewBox="0 0 59.5 68.49" enable-background="new 0 0 59.5 68.49" xml:space="preserve">
<g>
	<path fill="#44C8F5" d="M32.653,49.807c-1.331,0.533-2.682,0.533-4.014,0c-0.668-0.264-1.424,0.059-1.688,0.727
		c-0.268,0.666,0.057,1.424,0.726,1.689c0.971,0.387,1.971,0.582,2.971,0.582s1.999-0.195,2.969-0.582
		c0.669-0.266,0.994-1.023,0.726-1.689C34.078,49.865,33.322,49.543,32.653,49.807z"/>
	<path fill="#44C8F5" d="M59.168,64.646c-3.047-3.371-3.178-11.967-2.816-20.855c1.324-1.244,2.157-3.01,2.157-4.969
		c0-1.721-0.639-3.293-1.695-4.494c0.444-9.066,0.679-15.13-2.198-20.73c-1.963-3.818-5.136-7.012-9.434-9.486
		C40.172,1.229,34.453-0.187,28.65,0.02c-5.097,0.182-9.842,2.557-13.113,6.542c-4.227,0.251-8.073,2.55-10.14,6.105
		c-0.181,0.308-0.349,0.62-0.509,0.933c-2.879,5.6-2.643,11.663-2.2,20.729c-1.054,1.202-1.695,2.772-1.695,4.493
		c0,1.959,0.832,3.725,2.157,4.969c0.36,8.889,0.23,17.484-2.816,20.855c-0.288,0.318-0.398,0.758-0.295,1.176
		c0.101,0.416,0.401,0.758,0.803,0.91c3.425,1.295,6.746,1.76,9.738,1.76c3.115,0,5.877-0.502,8.047-1.09
		c3.767-1.018,6.428-2.449,7.331-2.977c1.237,0.203,2.502,0.314,3.792,0.314c1.291,0,2.556-0.111,3.793-0.314
		c0.907,0.527,3.564,1.959,7.331,2.977c2.896,0.783,5.578,1.09,8.002,1.09c4.044,0,7.375-0.85,9.783-1.76
		c0.401-0.152,0.702-0.494,0.803-0.91C59.564,65.404,59.455,64.965,59.168,64.646z M55.91,38.822c0,1.893-1.251,3.494-2.963,4.033
		c0.022-0.449,0.039-0.896,0.039-1.352v-6.449c0-0.02,0-0.039,0-0.06v-0.191C54.679,35.352,55.91,36.945,55.91,38.822z M7.2,14.788
		c0.137-0.273,0.291-0.545,0.444-0.813c1.712-2.943,4.985-4.797,8.562-4.836c0.395-0.009,0.766-0.196,1.007-0.511
		c2.806-3.659,7.006-5.849,11.531-6.011c5.313-0.189,10.551,1.106,15.14,3.748c3.859,2.222,6.689,5.055,8.421,8.422
		c2.302,4.479,2.368,9.355,1.994,17.729c-0.422-0.174-0.86-0.306-1.313-0.394v-1.322c0-0.717-0.582-1.301-1.303-1.301
		c-0.717,0-1.299,0.584-1.299,1.301v2.951c-17.898,0.195-27.598-8.432-30.183-11.13c-0.304-0.317-0.745-0.459-1.181-0.377
		c-0.431,0.081-0.792,0.376-0.96,0.782c-1.889,4.594-5.187,6.998-10.384,7.564c-0.662,0.072-1.16,0.629-1.16,1.293v0.238
		c-0.455,0.088-0.894,0.22-1.314,0.394C4.829,24.145,4.896,19.27,7.2,14.788z M44.746,39.611c0,2.17-1.766,3.939-3.939,3.939
		c-2.171,0-3.938-1.77-3.938-3.939c0-2.174,1.768-3.941,3.938-3.941C42.98,35.67,44.746,37.438,44.746,39.611z M6.518,34.803v6.701
		c0,0.455,0.017,0.902,0.04,1.352c-1.716-0.539-2.967-2.141-2.967-4.033C3.591,36.945,4.821,35.352,6.518,34.803z M3.384,64.85
		c2.313-3.955,2.718-10.531,2.425-19.508c0.345,0.107,0.699,0.188,1.066,0.234c1.479,8.328,7.404,15.131,15.224,17.867
		C18.34,65.061,11.22,67.205,3.384,64.85z M29.75,62.139c-11.377,0-20.635-9.258-20.635-20.635v-8.485
		c4.877-0.803,8.348-3.202,10.549-7.296c1.873,1.707,4.9,4.051,9.166,6.105c2.445,1.177,5.014,2.127,7.695,2.846
		c-1.381,1.201-2.253,2.966-2.253,4.937c0,3.604,2.929,6.533,6.534,6.533c3.609,0,6.542-2.93,6.542-6.533
		c0-1.229-0.341-2.375-0.927-3.355c1.301,0.076,2.622,0.109,3.963,0.098v5.15C50.385,52.881,41.128,62.139,29.75,62.139z
		 M41.639,64.918c-1.668-0.445-3.105-0.984-4.239-1.475c7.822-2.736,13.748-9.539,15.227-17.867
		c0.368-0.047,0.723-0.127,1.066-0.234c-0.294,8.977,0.107,15.553,2.425,19.512C51.529,66.238,46.666,66.262,41.639,64.918z"/>
	<path fill="#44C8F5" d="M18.693,33.069c-3.604,0-6.541,2.933-6.541,6.542c0,3.604,2.937,6.533,6.541,6.533
		c3.605,0,6.539-2.93,6.539-6.533C25.232,36.002,22.299,33.069,18.693,33.069z M18.693,43.551c-2.173,0-3.938-1.77-3.938-3.939
		c0-2.174,1.766-3.943,3.938-3.943c2.174,0,3.94,1.77,3.94,3.943C22.634,41.781,20.867,43.551,18.693,43.551z"/>
	<path fill="#44C8F5" d="M18.693,37.416c-1.211,0-2.193,0.984-2.193,2.195c0,1.207,0.982,2.186,2.193,2.186
		c1.212,0,2.19-0.979,2.19-2.186C20.884,38.4,19.905,37.416,18.693,37.416z"/>
	<path fill="#44C8F5" d="M38.619,39.611c0,1.207,0.98,2.186,2.188,2.186c1.211,0,2.194-0.979,2.194-2.186
		c0-1.211-0.983-2.195-2.194-2.195C39.6,37.416,38.619,38.4,38.619,39.611z"/>
	<path fill="#44C8F5" d="M15.403,46.473h-2.19c-0.72,0-1.301,0.582-1.301,1.299c0,0.719,0.581,1.301,1.301,1.301h2.19
		c0.722,0,1.304-0.582,1.304-1.301C16.707,47.055,16.125,46.473,15.403,46.473z"/>
	<path fill="#44C8F5" d="M47.59,47.771c0-0.717-0.582-1.299-1.298-1.299h-2.194c-0.72,0-1.301,0.582-1.301,1.299
		c0,0.719,0.581,1.301,1.301,1.301h2.194C47.008,49.072,47.59,48.49,47.59,47.771z"/>
</g>
</svg>
