<?xml version="1.0" encoding="utf-8"?>
<!-- Generator: Adobe Illustrator 16.0.0, SVG Export Plug-In . SVG Version: 6.00 Build 0)  -->
<!DOCTYPE svg PUBLIC "-//W3C//DTD SVG 1.1//EN" "http://www.w3.org/Graphics/SVG/1.1/DTD/svg11.dtd">
<svg version="1.1" id="Layer_1" xmlns="http://www.w3.org/2000/svg" xmlns:xlink="http://www.w3.org/1999/xlink" x="0px" y="0px"
	 width="68.49px" height="68.49px" viewBox="0 0 68.49 68.49" enable-background="new 0 0 68.49 68.49" xml:space="preserve">
<g>
	<path fill="#44C8F5" d="M68.492,24.303v-0.666L46.105,11.851l-0.572,0.716c-0.037,0.051-4.17,5.106-11.288,5.106
		c-7.077,0-11.25-5.06-11.291-5.106l-0.568-0.716L0,23.637v0.666c0,10.068,4.381,19.514,12.023,26.041l-1.797,5.993H0v2.212h11.869
		l2.88-9.603l3.089,19.544h2.88l4.073-14.253l1.94,8.729h41.761v-2.209H28.504l-0.626-2.809c2.094,0.396,4.225,0.6,6.368,0.6
		C53.129,58.549,68.492,43.188,68.492,24.303z M19.483,64.765l-1.642-10.403c1.317,0.719,2.679,1.36,4.073,1.898L19.483,64.765z
		 M27.353,55.582l-1.06-4.766h-2.822l-0.943,3.307c-1.779-0.701-3.502-1.564-5.13-2.575l-0.991-6.257h-2.869l-0.818,2.735
		C6.183,42.097,2.397,33.81,2.214,24.967l19.638-10.333c1.531,1.564,5.826,5.251,12.394,5.251c6.569,0,10.862-3.687,12.395-5.251
		l19.637,10.333c-0.354,17.357-14.586,31.37-32.032,31.37C31.917,56.337,29.604,56.076,27.353,55.582z"/>
	<path fill="#44C8F5" d="M48.039,42.946c0.551,0.081,1.109,0.134,1.672,0.134c6.094,0,11.049-4.953,11.049-11.043
		c0-6.094-4.955-11.049-11.049-11.049c-2.463,0-4.842,0.825-6.783,2.34c-0.314-0.086-0.631-0.13-0.949-0.13
		c-1.893,0-3.566,1.441-4.582,3.886c-1.137-1.039-2.639-1.676-4.288-1.676c-1.699,0-3.294,0.662-4.496,1.859l-1.104,1.104
		c-1.221-1.847-3.264-2.964-5.518-2.964c-0.797,0-1.578,0.142-2.328,0.422l-7.08,2.655l-1.294-1.946
		c-0.475-0.709-1.264-1.131-2.12-1.131c-1.401,0-2.542,1.137-2.542,2.542v4.087c0,1.826,1.485,3.311,3.313,3.311v2.211
		c0,1.221,0.991,2.211,2.212,2.211h1.662c2.23,2.85,4.953,5.211,8.106,7.013l1.451,0.826c1.816,1.317,4.043,2.101,6.452,2.101
		c4.534,0,8.993-1.23,12.882-3.565L48.039,42.946z M15.243,38l-0.328-0.441h-2.762v-2.211h3.134c1.615,0,3.039,1.031,3.548,2.563
		h0.003c-0.033,0.247-0.056,0.498-0.056,0.756c0,1.29,0.233,2.528,0.642,3.678C17.879,41.066,16.467,39.629,15.243,38z
		 M29.825,47.501c-4.87,0-8.836-3.966-8.836-8.835c0-0.953,0.407-1.859,1.123-2.488l-1.461-1.659
		c-0.285,0.251-0.536,0.528-0.759,0.823c-1.107-1.357-2.777-2.201-4.605-2.201H9.941c-0.61,0-1.105-0.494-1.105-1.104V27.95
		c0-0.294,0.448-0.435,0.615-0.187l2.268,3.404l8.722-3.271c0.495-0.187,1.02-0.28,1.552-0.28c1.686,0,3.2,0.937,3.953,2.448
		c1.29,2.574,3.886,4.18,6.769,4.18h1.531v-2.207h-1.531c-1.545,0-2.977-0.655-3.974-1.772l1.432-1.431
		c0.783-0.786,1.826-1.218,2.937-1.218c2.038,0,3.758,1.458,4.094,3.471c0.287,1.72,1.283,3.265,2.736,4.231l1.426,0.949
		l1.225-1.836l-1.428-0.953c-0.943-0.629-1.592-1.635-1.779-2.759c-0.08-0.472-0.227-0.917-0.398-1.345l0.068-0.364
		c0.584-2.157,1.762-3.603,2.926-3.603c0.221,0,0.447,0.055,0.689,0.175l0.662,0.313l0.547-0.484
		c1.619-1.428,3.693-2.214,5.834-2.214c4.875,0,8.838,3.963,8.838,8.839c0,4.869-3.963,8.836-8.838,8.836
		c-2.141,0-4.215-0.785-5.834-2.214l-1.465,1.655c0.834,0.732,1.768,1.324,2.756,1.775l-3.598,2.16
		C38.025,46.377,33.96,47.501,29.825,47.501z"/>
	<path fill="#44C8F5" d="M42.838,9.697l-1.563-1.565c-1.879,1.88-4.375,2.913-7.03,2.913c-2.656,0-5.151-1.033-7.03-2.913
		l-1.562,1.565c2.294,2.294,5.347,3.558,8.591,3.558C37.49,13.255,40.543,11.991,42.838,9.697z"/>
	<path fill="#44C8F5" d="M38.932,5.791l-1.561-1.565c-1.668,1.673-4.584,1.673-6.249,0L29.56,5.791
		c1.249,1.251,2.915,1.939,4.686,1.939C36.02,7.73,37.684,7.042,38.932,5.791z"/>
	<rect x="33.142" y="-0.002" fill="#44C8F5" width="2.208" height="2.208"/>
</g>
</svg>
